<svg id="visual" viewBox="0 0 900 600" width="900" height="600" xmlns="http://www.w3.org/2000/svg" xmlns:xlink="http://www.w3.org/1999/xlink" version="1.1"><path d="M0 55L60 55L120 19L180 37L240 37L300 55L360 79L420 55L480 97L540 55L600 85L660 73L720 103L780 103L840 103L900 31L900 0L840 0L780 0L720 0L660 0L600 0L540 0L480 0L420 0L360 0L300 0L240 0L180 0L120 0L60 0L0 0Z" fill="#e0cbaf"></path><path d="M0 79L60 115L120 85L180 61L240 103L300 115L360 127L420 139L480 145L540 103L600 121L660 121L720 151L780 175L840 127L900 73L900 29L840 101L780 101L720 101L660 71L600 83L540 53L480 95L420 53L360 77L300 53L240 35L180 35L120 17L60 53L0 53Z" fill="#dcc4a5"></path><path d="M0 91L60 145L120 145L180 85L240 151L300 127L360 193L420 175L480 163L540 121L600 157L660 145L720 175L780 217L840 175L900 109L900 71L840 125L780 173L720 149L660 119L600 119L540 101L480 143L420 137L360 125L300 113L240 101L180 59L120 83L60 113L0 77Z" fill="#d8be9b"></path><path d="M0 121L60 205L120 157L180 133L240 187L300 145L360 223L420 247L480 181L540 175L600 175L660 175L720 217L780 259L840 223L900 121L900 107L840 173L780 215L720 173L660 143L600 155L540 119L480 161L420 173L360 191L300 125L240 149L180 83L120 143L60 143L0 89Z" fill="#d4b791"></path><path d="M0 211L60 259L120 409L180 265L240 289L300 253L360 355L420 409L480 349L540 379L600 271L660 379L720 409L780 301L840 301L900 253L900 119L840 221L780 257L720 215L660 173L600 173L540 173L480 179L420 245L360 221L300 143L240 185L180 131L120 155L60 203L0 119Z" fill="#caad86"></path><path d="M0 283L60 295L120 421L180 319L240 367L300 343L360 391L420 421L480 421L540 439L600 307L660 427L720 451L780 349L840 313L900 295L900 251L840 299L780 299L720 407L660 377L600 269L540 377L480 347L420 407L360 353L300 251L240 287L180 263L120 407L60 257L0 209Z" fill="#bb9f7a"></path><path d="M0 493L60 517L120 541L180 553L240 559L300 571L360 463L420 511L480 493L540 553L600 463L660 553L720 493L780 487L840 493L900 505L900 293L840 311L780 347L720 449L660 425L600 305L540 437L480 419L420 419L360 389L300 341L240 365L180 317L120 419L60 293L0 281Z" fill="#ad916e"></path><path d="M0 601L60 601L120 601L180 601L240 601L300 601L360 601L420 601L480 601L540 601L600 601L660 601L720 601L780 601L840 601L900 601L900 503L840 491L780 485L720 491L660 551L600 461L540 551L480 491L420 509L360 461L300 569L240 557L180 551L120 539L60 515L0 491Z" fill="#9e8463"></path></svg>